<svg width="386" height="265" viewBox="0 0 386 265" fill="none" xmlns="http://www.w3.org/2000/svg">
<path d="M59.7732 231.125C42.8682 238.667 29.353 238.572 19.2275 230.838C9.10211 223.104 2.69293 212.092 0 197.801C31.6504 188.411 51.5748 199.519 59.7732 231.125Z" fill="url(#paint0_linear_138_9214)"/>
<path d="M34.8952 217.557C34.8554 217.544 34.818 217.524 34.7857 217.496C31.1357 215.449 27.0772 213.181 22.6101 210.692L12.2479 213.144C12.0641 213.188 11.8795 213.075 11.8357 212.893C11.7918 212.71 11.9053 212.527 12.0891 212.484L21.7309 210.202C16.1557 207.096 9.95897 203.653 3.14092 199.874C2.97594 199.782 2.91692 199.576 3.00911 199.412C3.10129 199.248 3.30976 199.19 3.47474 199.281C15.9237 206.182 26.3012 211.96 34.6077 216.616L33.5359 206.196C33.4896 205.746 34.1704 205.677 34.2168 206.127L35.3378 217.026C46.4125 223.237 53.6952 227.394 57.1874 229.498C57.3489 229.596 57.4004 229.804 57.3023 229.965C57.2042 230.125 56.9937 230.176 56.8322 230.078C54.7426 228.82 51.2903 226.822 46.4757 224.087C46.4631 224.094 46.4498 224.099 46.4361 224.104L36.9664 227.535C36.7889 227.599 36.5924 227.509 36.5276 227.333C36.4628 227.157 36.5541 226.962 36.7317 226.897L45.7016 223.648C42.6242 221.902 39.022 219.872 34.8952 217.557Z" fill="white"/>
<path d="M56.0794 240.656C38.7494 234.131 29.2608 224.583 27.6135 212.012C25.9662 199.44 29.2839 187.158 37.5664 175.163C66.6394 190.725 72.8103 212.556 56.0794 240.656Z" fill="url(#paint1_linear_138_9214)"/>
<path d="M48.8506 213.546C52.2543 225.706 54.4407 233.754 55.4103 237.692C55.4552 237.874 55.3427 238.058 55.1591 238.102C54.9755 238.147 54.7903 238.035 54.7455 237.853C54.1653 235.497 53.1477 231.663 51.6929 226.352C51.6793 226.348 51.6659 226.342 51.6526 226.336L42.5112 222.119C42.3398 222.04 42.2655 221.838 42.3452 221.668C42.4249 221.498 42.6284 221.425 42.7997 221.504L51.4587 225.498C50.5271 222.105 49.4271 218.142 48.1587 213.611C48.1399 213.574 48.128 213.533 48.125 213.491C47.003 209.483 45.7499 205.032 44.3656 200.139L35.2902 194.604C35.1292 194.506 35.079 194.297 35.1779 194.137C35.2769 193.978 35.4876 193.928 35.6486 194.026L44.0931 199.176C42.3647 193.068 40.4369 186.287 38.3095 178.832C38.2581 178.652 38.3638 178.464 38.5456 178.413C38.7274 178.362 38.9166 178.467 38.9681 178.647C42.8523 192.259 46.0716 203.625 48.6262 212.744L55.2957 204.624C55.5839 204.273 56.1145 204.702 55.8263 205.053L48.8506 213.546Z" fill="white"/>
<path d="M73.2891 252.331C58.928 263.957 45.8484 267.335 34.0503 262.465C22.2521 257.594 13.1882 248.603 6.8584 235.49C34.9806 218.294 57.1241 223.908 73.2891 252.331Z" fill="url(#paint2_linear_138_9214)"/>
<path d="M46.0078 244.987C58.3257 248.143 66.4449 250.288 70.367 251.424C70.5484 251.477 70.6526 251.665 70.5996 251.845C70.5467 252.025 70.3567 252.128 70.1753 252.076C67.8284 251.396 63.9727 250.354 58.6086 248.948C58.5981 248.957 58.5868 248.966 58.5748 248.975L50.3229 254.72C50.1682 254.828 49.9548 254.79 49.8462 254.637C49.7377 254.484 49.775 254.272 49.9297 254.164L57.7462 248.722C54.3181 247.826 50.3091 246.79 45.719 245.614C45.6771 245.611 45.6357 245.601 45.5973 245.583C41.5377 244.543 37.0256 243.394 32.0613 242.136L22.6921 247.166C22.5259 247.255 22.3182 247.194 22.2283 247.029C22.1383 246.864 22.2002 246.658 22.3664 246.569L31.0842 241.889C24.8886 240.32 18.0049 238.586 10.4332 236.686C10.25 236.64 10.139 236.455 10.1853 236.274C10.2317 236.092 10.4178 235.982 10.601 236.028C24.4261 239.497 35.9575 242.414 45.1958 244.779L41.4419 234.989C41.2797 234.566 41.9194 234.324 42.0816 234.747L46.0078 244.987Z" fill="white"/>
<path d="M258.676 44.8301H371.618V153.237H258.676V44.8301Z" fill="url(#paint3_linear_138_9214)"/>
<path d="M15.3987 0H146.356C146.356 35.9962 117.04 65.1769 80.8775 65.1769C44.7145 65.1769 15.3987 35.9962 15.3987 0Z" fill="url(#paint4_linear_138_9214)"/>
<path fill-rule="evenodd" clip-rule="evenodd" d="M21.9508 127.178C22.7672 127.178 23.4291 126.521 23.4291 125.711C23.4291 124.9 22.7672 124.244 21.9508 124.244C21.1343 124.244 20.4724 124.9 20.4724 125.711C20.4724 126.521 21.1343 127.178 21.9508 127.178ZM23.4291 134.334C23.4291 135.145 22.7672 135.801 21.9508 135.801C21.1343 135.801 20.4724 135.145 20.4724 134.334C20.4724 133.524 21.1343 132.867 21.9508 132.867C22.7672 132.867 23.4291 133.524 23.4291 134.334ZM21.9508 144.425C22.7672 144.425 23.4291 143.768 23.4291 142.958C23.4291 142.148 22.7672 141.491 21.9508 141.491C21.1343 141.491 20.4724 142.148 20.4724 142.958C20.4724 143.768 21.1343 144.425 21.9508 144.425ZM23.4291 151.582C23.4291 152.392 22.7672 153.049 21.9508 153.049C21.1343 153.049 20.4724 152.392 20.4724 151.582C20.4724 150.771 21.1343 150.115 21.9508 150.115C22.7672 150.115 23.4291 150.771 23.4291 151.582ZM21.9508 161.673C22.7672 161.673 23.4291 161.016 23.4291 160.205C23.4291 159.395 22.7672 158.738 21.9508 158.738C21.1343 158.738 20.4724 159.395 20.4724 160.205C20.4724 161.016 21.1343 161.673 21.9508 161.673ZM21.9508 170.296C22.7672 170.296 23.4291 169.639 23.4291 168.829C23.4291 168.019 22.7672 167.362 21.9508 167.362C21.1343 167.362 20.4724 168.019 20.4724 168.829C20.4724 169.639 21.1343 170.296 21.9508 170.296ZM32.1195 168.829C32.1195 169.639 31.4576 170.296 30.6412 170.296C29.8247 170.296 29.1628 169.639 29.1628 168.829C29.1628 168.019 29.8247 167.362 30.6412 167.362C31.4576 167.362 32.1195 168.019 32.1195 168.829ZM30.6412 161.673C31.4576 161.673 32.1195 161.016 32.1195 160.205C32.1195 159.395 31.4576 158.738 30.6412 158.738C29.8247 158.738 29.1628 159.395 29.1628 160.205C29.1628 161.016 29.8247 161.673 30.6412 161.673ZM32.1195 151.582C32.1195 152.392 31.4576 153.049 30.6412 153.049C29.8247 153.049 29.1628 152.392 29.1628 151.582C29.1628 150.771 29.8247 150.115 30.6412 150.115C31.4576 150.115 32.1195 150.771 32.1195 151.582ZM30.6412 144.425C31.4576 144.425 32.1195 143.768 32.1195 142.958C32.1195 142.148 31.4576 141.491 30.6412 141.491C29.8247 141.491 29.1628 142.148 29.1628 142.958C29.1628 143.768 29.8247 144.425 30.6412 144.425ZM32.1195 134.334C32.1195 135.145 31.4576 135.801 30.6412 135.801C29.8247 135.801 29.1628 135.145 29.1628 134.334C29.1628 133.524 29.8247 132.867 30.6412 132.867C31.4576 132.867 32.1195 133.524 32.1195 134.334ZM30.6412 127.178C31.4576 127.178 32.1195 126.521 32.1195 125.711C32.1195 124.9 31.4576 124.244 30.6412 124.244C29.8247 124.244 29.1628 124.9 29.1628 125.711C29.1628 126.521 29.8247 127.178 30.6412 127.178ZM40.8099 168.829C40.8099 169.639 40.148 170.296 39.3316 170.296C38.5151 170.296 37.8532 169.639 37.8532 168.829C37.8532 168.019 38.5151 167.362 39.3316 167.362C40.148 167.362 40.8099 168.019 40.8099 168.829ZM39.3316 161.673C40.148 161.673 40.8099 161.016 40.8099 160.205C40.8099 159.395 40.148 158.738 39.3316 158.738C38.5151 158.738 37.8532 159.395 37.8532 160.205C37.8532 161.016 38.5151 161.673 39.3316 161.673ZM40.8099 151.582C40.8099 152.392 40.148 153.049 39.3316 153.049C38.5151 153.049 37.8532 152.392 37.8532 151.582C37.8532 150.771 38.5151 150.115 39.3316 150.115C40.148 150.115 40.8099 150.771 40.8099 151.582ZM39.3316 144.425C40.148 144.425 40.8099 143.768 40.8099 142.958C40.8099 142.148 40.148 141.491 39.3316 141.491C38.5151 141.491 37.8532 142.148 37.8532 142.958C37.8532 143.768 38.5151 144.425 39.3316 144.425ZM40.8099 134.334C40.8099 135.145 40.148 135.801 39.3316 135.801C38.5151 135.801 37.8532 135.145 37.8532 134.334C37.8532 133.524 38.5151 132.867 39.3316 132.867C40.148 132.867 40.8099 133.524 40.8099 134.334ZM39.3316 127.178C40.148 127.178 40.8099 126.521 40.8099 125.711C40.8099 124.9 40.148 124.244 39.3316 124.244C38.5151 124.244 37.8532 124.9 37.8532 125.711C37.8532 126.521 38.5151 127.178 39.3316 127.178ZM49.5003 168.829C49.5003 169.639 48.8384 170.296 48.022 170.296C47.2055 170.296 46.5436 169.639 46.5436 168.829C46.5436 168.019 47.2055 167.362 48.022 167.362C48.8384 167.362 49.5003 168.019 49.5003 168.829ZM48.022 161.673C48.8384 161.673 49.5003 161.016 49.5003 160.205C49.5003 159.395 48.8384 158.738 48.022 158.738C47.2055 158.738 46.5436 159.395 46.5436 160.205C46.5436 161.016 47.2055 161.673 48.022 161.673ZM49.5003 151.582C49.5003 152.392 48.8384 153.049 48.022 153.049C47.2055 153.049 46.5436 152.392 46.5436 151.582C46.5436 150.771 47.2055 150.115 48.022 150.115C48.8384 150.115 49.5003 150.771 49.5003 151.582ZM48.022 144.425C48.8384 144.425 49.5003 143.768 49.5003 142.958C49.5003 142.148 48.8384 141.491 48.022 141.491C47.2055 141.491 46.5436 142.148 46.5436 142.958C46.5436 143.768 47.2055 144.425 48.022 144.425ZM49.5003 134.334C49.5003 135.145 48.8384 135.801 48.022 135.801C47.2055 135.801 46.5436 135.145 46.5436 134.334C46.5436 133.524 47.2055 132.867 48.022 132.867C48.8384 132.867 49.5003 133.524 49.5003 134.334ZM48.022 127.178C48.8384 127.178 49.5003 126.521 49.5003 125.711C49.5003 124.9 48.8384 124.244 48.022 124.244C47.2055 124.244 46.5436 124.9 46.5436 125.711C46.5436 126.521 47.2055 127.178 48.022 127.178ZM58.1907 168.829C58.1907 169.639 57.5288 170.296 56.7123 170.296C55.8959 170.296 55.234 169.639 55.234 168.829C55.234 168.019 55.8959 167.362 56.7123 167.362C57.5288 167.362 58.1907 168.019 58.1907 168.829ZM56.7123 161.673C57.5288 161.673 58.1907 161.016 58.1907 160.205C58.1907 159.395 57.5288 158.738 56.7123 158.738C55.8959 158.738 55.234 159.395 55.234 160.205C55.234 161.016 55.8959 161.673 56.7123 161.673ZM58.1907 151.582C58.1907 152.392 57.5288 153.049 56.7123 153.049C55.8959 153.049 55.234 152.392 55.234 151.582C55.234 150.771 55.8959 150.115 56.7123 150.115C57.5288 150.115 58.1907 150.771 58.1907 151.582ZM56.7123 144.425C57.5288 144.425 58.1907 143.768 58.1907 142.958C58.1907 142.148 57.5288 141.491 56.7123 141.491C55.8959 141.491 55.234 142.148 55.234 142.958C55.234 143.768 55.8959 144.425 56.7123 144.425ZM58.1907 134.334C58.1907 135.145 57.5288 135.801 56.7123 135.801C55.8959 135.801 55.234 135.145 55.234 134.334C55.234 133.524 55.8959 132.867 56.7123 132.867C57.5288 132.867 58.1907 133.524 58.1907 134.334ZM56.7123 127.178C57.5288 127.178 58.1907 126.521 58.1907 125.711C58.1907 124.9 57.5288 124.244 56.7123 124.244C55.8959 124.244 55.234 124.9 55.234 125.711C55.234 126.521 55.8959 127.178 56.7123 127.178ZM66.8811 168.829C66.8811 169.639 66.2192 170.296 65.4027 170.296C64.5863 170.296 63.9244 169.639 63.9244 168.829C63.9244 168.019 64.5863 167.362 65.4027 167.362C66.2192 167.362 66.8811 168.019 66.8811 168.829ZM65.4027 161.673C66.2192 161.673 66.8811 161.016 66.8811 160.205C66.8811 159.395 66.2192 158.738 65.4027 158.738C64.5863 158.738 63.9244 159.395 63.9244 160.205C63.9244 161.016 64.5863 161.673 65.4027 161.673ZM66.8811 151.582C66.8811 152.392 66.2192 153.049 65.4027 153.049C64.5863 153.049 63.9244 152.392 63.9244 151.582C63.9244 150.771 64.5863 150.115 65.4027 150.115C66.2192 150.115 66.8811 150.771 66.8811 151.582ZM65.4027 144.425C66.2192 144.425 66.8811 143.768 66.8811 142.958C66.8811 142.148 66.2192 141.491 65.4027 141.491C64.5863 141.491 63.9244 142.148 63.9244 142.958C63.9244 143.768 64.5863 144.425 65.4027 144.425ZM66.8811 134.334C66.8811 135.145 66.2192 135.801 65.4027 135.801C64.5863 135.801 63.9244 135.145 63.9244 134.334C63.9244 133.524 64.5863 132.867 65.4027 132.867C66.2192 132.867 66.8811 133.524 66.8811 134.334ZM65.4027 127.178C66.2192 127.178 66.8811 126.521 66.8811 125.711C66.8811 124.9 66.2192 124.244 65.4027 124.244C64.5863 124.244 63.9244 124.9 63.9244 125.711C63.9244 126.521 64.5863 127.178 65.4027 127.178Z" fill="#8BE1F7"/>
<path d="M97.9461 199.265C61.4279 199.265 31.824 228.642 31.824 264.88H119.001L97.9461 199.265Z" fill="url(#paint5_linear_138_9214)"/>
<path d="M283.335 18.331H332.612C342.061 18.331 349.721 25.9301 349.721 35.3042V54.993H300.444C290.995 54.993 283.335 47.3939 283.335 38.0199V18.331Z" fill="url(#paint6_linear_138_9214)"/>
<path fill-rule="evenodd" clip-rule="evenodd" d="M301.799 39.1244C299.985 39.1244 298.514 37.6647 298.514 35.8641C298.514 34.0634 299.985 32.6037 301.799 32.6037C303.614 32.6037 305.085 34.0634 305.085 35.8641C305.085 37.6647 303.614 39.1244 301.799 39.1244ZM316.585 39.1244C314.77 39.1244 313.299 37.6647 313.299 35.8641C313.299 34.0634 314.77 32.6037 316.585 32.6037C318.399 32.6037 319.87 34.0634 319.87 35.8641C319.87 37.6647 318.399 39.1244 316.585 39.1244ZM328.084 35.8641C328.084 37.6647 329.555 39.1244 331.37 39.1244C333.184 39.1244 334.655 37.6647 334.655 35.8641C334.655 34.0634 333.184 32.6037 331.37 32.6037C329.555 32.6037 328.084 34.0634 328.084 35.8641Z" fill="white"/>
<path d="M336.717 77.0582H372.312C379.872 77.0582 386 83.1375 386 90.6367V104.275H350.404C342.845 104.275 336.717 98.1958 336.717 90.6966V77.0582Z" fill="url(#paint7_linear_138_9214)"/>
<path fill-rule="evenodd" clip-rule="evenodd" d="M201.865 142.641C201.865 175.349 228.587 201.865 261.551 201.865C294.516 201.865 321.237 175.349 321.237 142.641C321.237 109.934 294.516 83.4175 261.551 83.4175C228.587 83.4175 201.865 109.934 201.865 142.641ZM293.861 142.641C293.861 160.352 279.395 174.708 261.551 174.708C243.708 174.708 229.241 160.352 229.241 142.641C229.241 124.93 243.708 110.575 261.551 110.575C279.395 110.575 293.861 124.93 293.861 142.641Z" fill="white"/>
<path fill-rule="evenodd" clip-rule="evenodd" d="M350.062 92.334C348.739 92.334 347.667 91.2701 347.667 89.9577C347.667 88.6454 348.739 87.5815 350.062 87.5815C351.385 87.5815 352.457 88.6454 352.457 89.9577C352.457 91.2701 351.385 92.334 350.062 92.334ZM361.354 92.334C360.032 92.334 358.959 91.2701 358.959 89.9577C358.959 88.6454 360.032 87.5815 361.354 87.5815C362.677 87.5815 363.75 88.6454 363.75 89.9577C363.75 91.2701 362.677 92.334 361.354 92.334ZM370.251 89.9577C370.251 91.2701 371.324 92.334 372.647 92.334C373.97 92.334 375.042 91.2701 375.042 89.9577C375.042 88.6454 373.97 87.5815 372.647 87.5815C371.324 87.5815 370.251 88.6454 370.251 89.9577Z" fill="white"/>
<path d="M109.591 0H249.232C256.036 0 261.551 5.47138 261.551 12.2207V252.684C261.551 259.434 256.036 264.905 249.232 264.905H109.591C102.788 264.905 97.2725 259.434 97.2725 252.684V12.2207C97.2725 5.47138 102.788 0 109.591 0Z" fill="url(#paint8_linear_138_9214)"/>
<path fill-rule="evenodd" clip-rule="evenodd" d="M104.116 236.377H254.707V16.3019H104.116V236.377Z" fill="url(#paint9_linear_138_9214)"/>
<path fill-rule="evenodd" clip-rule="evenodd" d="M235.266 30.1577C235.266 29.2578 234.531 28.5283 233.624 28.5283H208.16C207.253 28.5283 206.518 29.2578 206.518 30.1577V35.0498C206.518 35.9497 207.253 36.6792 208.16 36.6792H233.624C234.531 36.6792 235.266 35.9497 235.266 35.0498V30.1577ZM247.587 46.4595C247.587 45.5596 246.852 44.8301 245.945 44.8301H208.16C207.253 44.8301 206.518 45.5596 206.518 46.4595V51.3516C206.518 52.2515 207.253 52.981 208.16 52.981H245.945C246.852 52.981 247.587 52.2515 247.587 51.3516V46.4595Z" fill="#8FC8F0"/>
<path d="M113.881 28.5149H189.999C190.906 28.5149 191.641 29.2444 191.641 30.1443V83.942C191.641 84.8419 190.906 85.5714 189.999 85.5714H113.881C112.974 85.5714 112.239 84.8419 112.239 83.942V30.1443C112.239 29.2444 112.974 28.5149 113.881 28.5149Z" fill="url(#paint10_linear_138_9214)"/>
<path d="M113.881 101.839H189.999C190.906 101.839 191.641 102.569 191.641 103.468V157.266C191.641 158.166 190.906 158.895 189.999 158.895H113.881C112.974 158.895 112.239 158.166 112.239 157.266V103.468C112.239 102.569 112.974 101.839 113.881 101.839Z" fill="url(#paint11_linear_138_9214)"/>
<path d="M113.973 175.245H190.09C190.997 175.245 191.733 175.974 191.733 176.874V222.521C191.733 223.421 190.997 224.15 190.09 224.15H113.973C113.066 224.15 112.33 223.421 112.33 222.521V176.874C112.33 175.974 113.066 175.245 113.973 175.245Z" fill="url(#paint12_linear_138_9214)"/>
<path fill-rule="evenodd" clip-rule="evenodd" d="M235.266 103.516C235.266 102.616 234.531 101.887 233.624 101.887H208.16C207.253 101.887 206.518 102.616 206.518 103.516V108.408C206.518 109.308 207.253 110.038 208.16 110.038H233.624C234.531 110.038 235.266 109.308 235.266 108.408V103.516ZM247.587 119.818C247.587 118.918 246.852 118.188 245.945 118.188H208.16C207.253 118.188 206.518 118.918 206.518 119.818V124.71C206.518 125.61 207.253 126.339 208.16 126.339H245.945C246.852 126.339 247.587 125.61 247.587 124.71V119.818Z" fill="#8FC8F0"/>
<path opacity="0.5" fill-rule="evenodd" clip-rule="evenodd" d="M247.587 61.9467C247.587 61.4967 247.219 61.132 246.766 61.132H207.339C206.885 61.132 206.518 61.4967 206.518 61.9467V64.3927C206.518 64.8427 206.885 65.2074 207.339 65.2074H246.766C247.219 65.2074 247.587 64.8427 247.587 64.3927V61.9467ZM247.587 74.1731C247.587 73.7231 247.219 73.3583 246.766 73.3583H207.339C206.885 73.3583 206.518 73.7231 206.518 74.1731V76.6191C206.518 77.0691 206.885 77.4338 207.339 77.4338H246.766C247.219 77.4338 247.587 77.0691 247.587 76.6191V74.1731Z" fill="#8FC8F0"/>
<path opacity="0.5" d="M246.766 134.49C247.219 134.49 247.587 134.855 247.587 135.305V137.751C247.587 138.201 247.219 138.566 246.766 138.566H207.339C206.885 138.566 206.518 138.201 206.518 137.751V135.305C206.518 134.855 206.885 134.49 207.339 134.49H246.766Z" fill="#8FC8F0"/>
<path d="M184.75 142.641H381.886C384.153 142.641 385.992 144.465 385.992 146.715V260.832C385.992 263.081 384.153 264.905 381.886 264.905H184.75C182.482 264.905 180.644 263.081 180.644 260.832V146.715C180.644 144.465 182.482 142.641 184.75 142.641Z" fill="url(#paint13_linear_138_9214)"/>
<path d="M180.644 163.019H385.992V187.471H180.644V163.019Z" fill="url(#paint14_linear_138_9214)"/>
<path opacity="0.5" fill-rule="evenodd" clip-rule="evenodd" d="M229.927 222.113H197.072V230.264H229.927V222.113ZM221.714 240.452H197.072V248.603H221.714V240.452ZM238.141 222.113H279.211V230.264H238.141V222.113ZM258.676 240.452H229.927V248.603H258.676V240.452Z" fill="white"/>
<path d="M337.119 249.826C344.831 249.826 351.083 243.622 351.083 235.969C351.083 228.317 344.831 222.113 337.119 222.113C329.407 222.113 323.156 228.317 323.156 235.969C323.156 243.622 329.407 249.826 337.119 249.826Z" fill="#23257B"/>
<path opacity="0.5" d="M351.083 249.826C358.795 249.826 365.046 243.622 365.046 235.969C365.046 228.317 358.795 222.113 351.083 222.113C343.371 222.113 337.119 228.317 337.119 235.969C337.119 243.622 343.371 249.826 351.083 249.826Z" fill="white"/>
<path d="M64.3913 98.0578L59.0952 114.07L50.6632 134.15L54.6815 139.411L52.1604 147.983L44.0564 139.913C40.9842 136.854 40.1909 132.205 42.0768 128.313L53.5106 104.717L64.3913 98.0578Z" fill="#FF686E"/>
<path d="M85.5172 260.236C87.309 259.708 89.3733 259.601 91.7102 259.916C95.2156 260.388 99.226 261.197 97.983 263.166C96.7399 265.136 91.0388 265.218 88.2144 264.789C85.39 264.359 85.0607 264.606 82.368 264.789C79.6754 264.971 79.2017 264.804 79.2017 263.287C79.2017 261.77 79.2016 259.891 79.2017 259.055C79.2018 258.218 79.328 257.49 81.2917 258.199C82.6009 258.671 84.0094 259.35 85.5172 260.236Z" fill="url(#paint15_linear_138_9214)"/>
<path d="M79.2141 251.329H86.615V258.899L90.9558 259.827C87.816 261.278 84.2145 261.391 80.9889 260.139L79.2141 259.45V251.329Z" fill="url(#paint16_linear_138_9214)"/>
<path d="M63.9591 260.236C65.7509 259.708 67.8152 259.601 70.1521 259.916C73.6575 260.388 77.6679 261.197 76.4249 263.166C75.1818 265.136 69.4807 265.218 66.6563 264.789C63.8319 264.359 63.5026 264.606 60.8099 264.789C58.1172 264.971 57.6436 264.804 57.6436 263.287C57.6436 261.77 57.6435 259.891 57.6436 259.055C57.6437 258.218 57.7698 257.49 59.7336 258.199C61.0428 258.671 62.4513 259.35 63.9591 260.236Z" fill="url(#paint17_linear_138_9214)"/>
<path d="M57.656 251.329H65.0569V258.899L69.3977 259.827C66.2579 261.278 62.6564 261.391 59.4308 260.139L57.656 259.45V251.329Z" fill="url(#paint18_linear_138_9214)"/>
<path d="M66.1578 255.788H56.5324L52.2383 157.623L76.4831 158.218L66.1578 255.788Z" fill="#0C1452"/>
<path d="M88.1292 255.676H77.9488L75.031 203.518L52.2144 157.747L85.024 158.283L91.9066 191.941C92.6821 195.734 92.9089 199.617 92.5801 203.473L88.1292 255.676Z" fill="url(#paint19_linear_138_9214)"/>
<path d="M73.653 99.8841L64.5346 97.7263L65.3489 93.9258C63.0514 89.9219 63.0514 84.9234 65.3489 78.9302C67.6464 72.937 73.1452 72.8029 81.8453 78.5278L83.4309 85.9198C81.9002 86.4443 81.1348 87.4659 81.1348 88.9846C81.1348 91.2626 79.3506 92.1052 77.2153 92.5859C75.7918 92.9064 74.6043 95.3391 73.653 99.8841Z" fill="url(#paint20_linear_138_9214)"/>
<path d="M89.9021 104.626L113.434 105.979L140.491 85.2118L136.327 91.4534C136.867 93.4205 136.641 95.0154 135.651 96.2382C134.661 97.461 133.444 98.0187 131.999 97.9114L117.987 113.225C116.661 114.675 114.768 115.486 112.795 115.45L91.1935 115.06L89.9021 104.626Z" fill="url(#paint21_linear_138_9214)"/>
<path d="M70.5233 97.2866C73.6192 97.2866 87.7557 100.067 112.933 105.628L125.34 95.9502L129.758 101.24L119.894 113.015C117.944 115.343 115.051 116.69 111.999 116.69H85.6956C86.4734 118.03 86.8623 120.142 86.8623 123.026C86.8623 125.911 85.6613 128.283 83.2593 130.143L85.0462 158.345H51.645V111.544C51.645 103.67 58.0796 97.2866 66.0171 97.2866C67.5191 97.2866 69.0212 97.2866 70.5233 97.2866Z" fill="url(#paint22_linear_138_9214)"/>
<path fill-rule="evenodd" clip-rule="evenodd" d="M70.51 160.481L70.8307 160.362L71.6658 162.59L71.3451 162.708L70.51 160.481ZM72.5381 165.89L72.8588 165.771L73.694 167.998L73.3732 168.117L72.5381 165.89ZM74.887 171.18L74.5662 171.298L75.4013 173.526L75.7221 173.407L74.887 171.18ZM76.5944 176.707L76.9151 176.589L77.7502 178.816L77.4295 178.934L76.5944 176.707ZM78.9432 181.998L78.6225 182.116L79.4576 184.343L79.7783 184.225L78.9432 181.998ZM80.6506 187.525L80.9713 187.406L81.8064 189.634L81.4857 189.752L80.6506 187.525ZM82.9983 192.818L82.6763 192.933C82.9455 193.675 83.1883 194.426 83.4044 195.184L83.7337 195.092C83.5155 194.326 83.2702 193.567 82.9983 192.818ZM84.1663 198.482L84.5032 198.423C84.6431 199.207 84.7553 199.996 84.8396 200.788L84.4993 200.823C84.4158 200.039 84.3048 199.258 84.1663 198.482ZM85.0292 204.199L84.687 204.201C84.6888 204.565 84.6847 204.929 84.6747 205.293L84.6391 206.576L84.9811 206.585L85.0167 205.303C85.0269 204.935 85.031 204.567 85.0292 204.199ZM84.545 209.969L84.887 209.979L84.8211 212.354L84.4791 212.345L84.545 209.969ZM84.727 215.747L84.3849 215.738L84.3191 218.113L84.6611 218.123L84.727 215.747ZM84.2249 221.507L84.567 221.516L84.5011 223.891L84.159 223.882L84.2249 221.507ZM84.407 227.285L84.0649 227.275L83.999 229.651L84.3411 229.66L84.407 227.285ZM83.9049 233.044L84.247 233.053L84.1811 235.429L83.839 235.419L83.9049 233.044ZM84.087 238.822L83.7449 238.813L83.679 241.188L84.0211 241.197L84.087 238.822ZM83.5849 244.581L83.9269 244.591L83.8611 246.966L83.519 246.957L83.5849 244.581ZM83.7669 250.359L83.4249 250.35L83.359 252.725L83.701 252.735L83.7669 250.359Z" fill="url(#paint23_linear_138_9214)"/>
<path d="M62.1552 90.8297C64.2354 93.9555 66.2574 94.6949 68.2212 93.0477C71.1669 90.577 70.3858 88.7634 68.9406 88.2112C67.4955 87.659 67.2 84.6946 68.9406 84.2434C70.6813 83.7923 71.7536 86.1641 72.2487 84.2434C72.7438 82.3228 71.9292 80.3443 74.1877 80.3443C76.4462 80.3443 81.7086 81.1901 82.7505 77.7522C83.7924 74.3142 81.0507 70.0599 74.9956 70.0599C68.9406 70.0599 63.2666 73.0191 60.998 78.255C59.4856 81.7456 59.8714 85.9372 62.1552 90.8297Z" fill="url(#paint24_linear_138_9214)"/>
<path d="M63.1601 78.0685C60.2102 77.595 58.8182 78.8125 58.9841 81.721C59.2329 86.0837 63.8446 90.2661 55.6188 94.4959C47.393 98.7256 50.0744 106.784 55.7891 108.66C44.7586 105.563 40.1042 100.286 41.826 92.8291C44.4087 81.6441 53.6875 87.9725 54.0097 80.1321C54.2244 74.9053 57.6746 73.6595 64.3603 76.3949L63.1601 78.0685Z" fill="url(#paint25_linear_138_9214)"/>
<defs>
<linearGradient id="paint0_linear_138_9214" x1="-6.00672" y1="210.263" x2="14.9613" y2="233.016" gradientUnits="userSpaceOnUse">
<stop stop-color="#CFE49F"/>
<stop offset="1" stop-color="#A9D386"/>
</linearGradient>
<linearGradient id="paint1_linear_138_9214" x1="30.0925" y1="187.764" x2="53.2874" y2="211.029" gradientUnits="userSpaceOnUse">
<stop stop-color="#77D791"/>
<stop offset="1" stop-color="#4FA67E"/>
</linearGradient>
<linearGradient id="paint2_linear_138_9214" x1="-8.5275" y1="253.812" x2="33.8688" y2="296.325" gradientUnits="userSpaceOnUse">
<stop stop-color="#6EAE7C"/>
<stop offset="1" stop-color="#0F575D"/>
</linearGradient>
<linearGradient id="paint3_linear_138_9214" x1="233.946" y1="52.7052" x2="233.946" y2="208.588" gradientUnits="userSpaceOnUse">
<stop stop-color="#D0F6FF"/>
<stop offset="1" stop-color="#8BE2F7"/>
</linearGradient>
<linearGradient id="paint4_linear_138_9214" x1="-13.2767" y1="4.73471" x2="-13.2767" y2="98.4549" gradientUnits="userSpaceOnUse">
<stop stop-color="#D0F6FF"/>
<stop offset="1" stop-color="#8BE2F7"/>
</linearGradient>
<linearGradient id="paint5_linear_138_9214" x1="34.9904" y1="204.031" x2="34.9904" y2="264.88" gradientUnits="userSpaceOnUse">
<stop stop-color="#55D0FF"/>
<stop offset="1" stop-color="#32A2FE"/>
</linearGradient>
<linearGradient id="paint6_linear_138_9214" x1="283.335" y1="18.331" x2="283.335" y2="54.993" gradientUnits="userSpaceOnUse">
<stop stop-color="#FF9485"/>
<stop offset="1" stop-color="#FF676E"/>
</linearGradient>
<linearGradient id="paint7_linear_138_9214" x1="336.717" y1="77.0582" x2="336.717" y2="104.275" gradientUnits="userSpaceOnUse">
<stop stop-color="#FF9485"/>
<stop offset="1" stop-color="#FF676E"/>
</linearGradient>
<linearGradient id="paint8_linear_138_9214" x1="251.787" y1="303.27" x2="255.781" y2="69.8962" gradientUnits="userSpaceOnUse">
<stop stop-color="#2B3389"/>
<stop offset="1" stop-color="#444FB7"/>
</linearGradient>
<linearGradient id="paint9_linear_138_9214" x1="110.254" y1="16.3019" x2="110.254" y2="218.437" gradientUnits="userSpaceOnUse">
<stop stop-color="#EAFCFF"/>
<stop offset="1" stop-color="white"/>
</linearGradient>
<linearGradient id="paint10_linear_138_9214" x1="112.239" y1="28.5149" x2="112.239" y2="85.5714" gradientUnits="userSpaceOnUse">
<stop stop-color="#FF9485"/>
<stop offset="1" stop-color="#FF676E"/>
</linearGradient>
<linearGradient id="paint11_linear_138_9214" x1="124.3" y1="101.839" x2="124.3" y2="141.562" gradientUnits="userSpaceOnUse">
<stop stop-color="#4DBCFA"/>
<stop offset="1" stop-color="#1486DB"/>
</linearGradient>
<linearGradient id="paint12_linear_138_9214" x1="124.392" y1="175.245" x2="124.392" y2="209.293" gradientUnits="userSpaceOnUse">
<stop stop-color="#4DBCFA"/>
<stop offset="1" stop-color="#1486DB"/>
</linearGradient>
<linearGradient id="paint13_linear_138_9214" x1="180.644" y1="142.641" x2="180.644" y2="264.905" gradientUnits="userSpaceOnUse">
<stop stop-color="#4DBCFA"/>
<stop offset="1" stop-color="#1486DB"/>
</linearGradient>
<linearGradient id="paint14_linear_138_9214" x1="191.56" y1="169.132" x2="193.463" y2="197.698" gradientUnits="userSpaceOnUse">
<stop stop-color="#0F1752"/>
<stop offset="1" stop-color="#272884"/>
</linearGradient>
<linearGradient id="paint15_linear_138_9214" x1="79.2017" y1="257.912" x2="79.2017" y2="265" gradientUnits="userSpaceOnUse">
<stop stop-color="#052569"/>
<stop offset="1" stop-color="#021038"/>
</linearGradient>
<linearGradient id="paint16_linear_138_9214" x1="79.2141" y1="251.329" x2="79.2141" y2="261.003" gradientUnits="userSpaceOnUse">
<stop stop-color="#CD8E7C"/>
<stop offset="1" stop-color="#E6B18C"/>
</linearGradient>
<linearGradient id="paint17_linear_138_9214" x1="57.6436" y1="257.912" x2="57.6436" y2="265" gradientUnits="userSpaceOnUse">
<stop stop-color="#052569"/>
<stop offset="1" stop-color="#021038"/>
</linearGradient>
<linearGradient id="paint18_linear_138_9214" x1="57.656" y1="251.329" x2="57.656" y2="261.003" gradientUnits="userSpaceOnUse">
<stop stop-color="#CD8E7C"/>
<stop offset="1" stop-color="#E6B18C"/>
</linearGradient>
<linearGradient id="paint19_linear_138_9214" x1="54.368" y1="182.229" x2="109.302" y2="222.847" gradientUnits="userSpaceOnUse">
<stop stop-color="#0F1752"/>
<stop offset="1" stop-color="#272884"/>
</linearGradient>
<linearGradient id="paint20_linear_138_9214" x1="63.6257" y1="74.3324" x2="63.6257" y2="99.8841" gradientUnits="userSpaceOnUse">
<stop stop-color="#CD8E7C"/>
<stop offset="1" stop-color="#E6B18C"/>
</linearGradient>
<linearGradient id="paint21_linear_138_9214" x1="89.9021" y1="85.2118" x2="89.9021" y2="115.451" gradientUnits="userSpaceOnUse">
<stop stop-color="#CD8E7C"/>
<stop offset="1" stop-color="#E6B18C"/>
</linearGradient>
<linearGradient id="paint22_linear_138_9214" x1="51.645" y1="95.9502" x2="51.645" y2="158.345" gradientUnits="userSpaceOnUse">
<stop stop-color="#FF9485"/>
<stop offset="1" stop-color="#FF676E"/>
</linearGradient>
<linearGradient id="paint23_linear_138_9214" x1="70.51" y1="160.362" x2="70.51" y2="252.735" gradientUnits="userSpaceOnUse">
<stop stop-color="white"/>
<stop offset="1" stop-color="#A587FF"/>
</linearGradient>
<linearGradient id="paint24_linear_138_9214" x1="60.0942" y1="70.0599" x2="60.0942" y2="93.9004" gradientUnits="userSpaceOnUse">
<stop stop-color="#48137B"/>
<stop offset="1" stop-color="#300C59"/>
</linearGradient>
<linearGradient id="paint25_linear_138_9214" x1="41.4773" y1="74.9853" x2="41.4773" y2="108.66" gradientUnits="userSpaceOnUse">
<stop stop-color="#48137B"/>
<stop offset="1" stop-color="#300C59"/>
</linearGradient>
</defs>
</svg>
