<svg width="149" height="52" viewBox="0 0 149 52" fill="none" xmlns="http://www.w3.org/2000/svg">
<path d="M16.9716 29.3023V31.7392C16.0038 30.7268 14.9438 29.9851 13.8146 29.4789C12.674 28.9844 11.4642 28.7254 10.1622 28.7254C7.33939 28.7254 4.94285 29.8085 2.97263 31.9864C0.990875 34.1879 0 36.9898 0 40.4039C0 43.7003 1.02544 46.4551 3.05328 48.6684C5.09264 50.8816 7.51222 52 10.312 52C11.5564 52 12.7086 51.7646 13.7801 51.3172C14.8401 50.8581 15.9001 50.1164 16.9716 49.0804V51.4232H22.3984V29.3023H16.9716ZM15.5199 45.0895C14.4023 46.2903 12.9851 46.9024 11.2798 46.9024C9.63223 46.9024 8.23809 46.2785 7.10895 45.0541C5.97982 43.818 5.41525 42.2522 5.41525 40.3451C5.41525 38.4497 5.9683 36.8839 7.08591 35.6713C8.20353 34.4705 9.58614 33.8583 11.2683 33.8583C12.9851 33.8583 14.4023 34.4587 15.5314 35.6477C16.6605 36.8368 17.2136 38.3908 17.2136 40.3215C17.2021 42.2758 16.649 43.8769 15.5199 45.0895Z" fill="#EF4023"/>
<path d="M49.6014 40.9101C49.6014 37.2488 48.5414 34.3057 46.3983 32.0806C44.2668 29.8438 41.49 28.7372 38.0796 28.7372C34.8765 28.7372 32.2034 29.8438 30.0719 32.0806C27.9404 34.3057 26.8804 37.1076 26.8804 40.4863C26.8804 43.7827 27.9519 46.5257 30.0834 48.7154C32.215 50.9052 34.9802 52 38.3791 52C40.5683 52 42.4579 51.5998 44.0479 50.811C45.6379 50.0222 47.009 48.7979 48.1496 47.1379L43.5755 44.9364C42.1122 46.3844 40.3839 47.1026 38.3446 47.1026C36.6509 47.1026 35.2452 46.6435 34.1506 45.7134C33.0676 44.7834 32.3878 43.5355 32.1343 41.9697H49.5783L49.6014 40.9101ZM32.3648 37.5902C32.9754 36.2246 33.6437 35.271 34.358 34.7295C35.5102 33.8583 36.8237 33.4227 38.3446 33.4227C39.7502 33.4227 40.9715 33.7994 42.02 34.5764C43.0685 35.3534 43.7829 36.3541 44.14 37.5785H32.3648V37.5902Z" fill="#EF4023"/>
<path d="M62.114 28.7372C61.1231 28.7372 60.2129 29.0197 59.3718 29.5848C58.5422 30.1499 57.8624 30.9858 57.3555 32.0806V29.3023H52.7007V51.4232H58.0929V42.4759L58.0698 41.3928C58.0698 38.3084 58.3579 36.2364 58.934 35.1768C59.5101 34.1173 60.2129 33.5875 61.054 33.5875C61.4688 33.5875 61.9873 33.7406 62.6325 34.0702L64.3147 29.2905C63.5542 28.9255 62.8168 28.7372 62.114 28.7372Z" fill="#EF4023"/>
<path d="M87.1395 34.5411C86.1371 32.7517 84.7315 31.3389 82.9341 30.2912C81.1367 29.2434 79.2125 28.7372 77.1732 28.7372C74.3503 28.7372 71.8501 29.7379 69.6725 31.7392C67.1953 34.0349 65.9509 36.9192 65.9509 40.3804C65.9509 43.6061 67.0455 46.3491 69.2346 48.5977C71.4238 50.8581 74.0738 51.9883 77.1732 51.9883C79.2932 51.9883 81.2173 51.4703 82.9686 50.4578C84.7199 49.4336 86.1026 48.0091 87.1165 46.1961C88.1304 44.3831 88.6374 42.4288 88.6374 40.3451C88.6489 38.2613 88.1534 36.3306 87.1395 34.5411ZM81.4938 45.007C80.3647 46.2079 78.9475 46.82 77.2423 46.82C75.5486 46.82 74.1429 46.2196 73.0368 45.0306C71.9192 43.8298 71.3662 42.2758 71.3662 40.3568C71.3662 38.485 71.9307 36.9545 73.0484 35.7537C74.166 34.5529 75.5832 33.9525 77.2653 33.9525C78.9936 33.9525 80.4108 34.5529 81.5169 35.7302C82.6345 36.9192 83.1875 38.4614 83.1875 40.3568C83.1875 42.2522 82.623 43.8062 81.4938 45.007Z" fill="#EF4023"/>
<path d="M92.4971 20.767V51.4231H97.9238V20.767H92.4971Z" fill="black"/>
<path d="M124.574 40.9101C124.574 37.2488 123.502 34.3057 121.371 32.0806C119.239 29.8438 116.462 28.7372 113.052 28.7372C109.837 28.7372 107.176 29.8438 105.044 32.0806C102.924 34.3057 101.853 37.1076 101.853 40.4863C101.853 43.7827 102.913 46.5257 105.044 48.7154C107.187 50.9052 109.953 52 113.34 52C115.529 52 117.419 51.5998 119.02 50.811C120.61 50.0222 121.97 48.7979 123.122 47.1379L118.548 44.9364C117.085 46.3844 115.345 47.1026 113.317 47.1026C111.612 47.1026 110.218 46.6435 109.123 45.7134C108.028 44.7834 107.349 43.5355 107.095 41.9697H124.539L124.574 40.9101ZM107.337 37.5902C107.948 36.2246 108.616 35.271 109.33 34.7295C110.483 33.8583 111.796 33.4227 113.317 33.4227C114.711 33.4227 115.932 33.7994 116.992 34.5764C118.041 35.3534 118.755 36.3541 119.112 37.5785H107.337V37.5902Z" fill="black"/>
<path d="M148.09 29.3258L141.845 29.3022L141.061 30.4089L137.582 35.3181L133.307 29.2905H127.005L134.448 39.7682L126.233 51.4114H132.432L137.559 44.1594L142.698 51.4114H149L140.693 39.6975L145.474 33.0342L147.744 29.8909L148.09 29.3258Z" fill="black"/>
<path d="M42.8611 4.41476C42.8265 4.68553 43.5409 5.12112 44.5087 5.2624C45.4765 5.40367 46.5596 5.56849 46.5596 5.56849L47.4698 7.32262L46.8361 7.22844C46.5826 7.19312 46.3406 7.36971 46.2946 7.64048C46.26 7.89948 46.4328 8.14671 46.6978 8.1938L48.0228 8.39393L49.3248 10.9015L50.8111 11.1134L49.3709 6.00408C49.3709 6.00408 51.3526 6.29839 52.0209 6.39257C52.6892 6.48676 53.6455 6.46321 53.6455 6.46321L54.8898 8.52343L55.7079 8.62939L55.0857 6.32194L55.1318 6.2513L55.535 6.27485L56.1687 6.33371L56.0881 6.32194H56.1687L55.5466 6.19244L55.1433 6.09826L55.1203 6.01585L56.3531 3.97917L55.535 3.8379L53.7722 5.46253C53.7722 5.46253 52.8735 5.16821 52.1937 5.06226C51.5139 4.95631 49.5437 4.67376 49.5437 4.67376L52.3089 0.200136L50.8457 0L48.91 2.0249L47.585 1.83654C47.3315 1.80122 47.0896 1.97781 47.0435 2.24858C47.0089 2.50758 47.1817 2.75481 47.4467 2.8019L48.0804 2.89608L46.7209 4.32058C46.7209 4.32058 45.6378 4.15576 44.67 4.01449C43.7022 3.87322 42.8956 4.08513 42.8611 4.3559C42.8726 4.3559 42.8611 4.40299 42.8611 4.41476Z" fill="black"/>
<path d="M148.389 28.8078L148.09 29.3258L147.744 29.9027L145.474 33.046C144.046 32.1512 142.559 31.2683 141.05 30.4089C139.31 29.42 137.547 28.4664 135.784 27.5363C134.068 26.6534 132.339 25.7822 130.6 24.9464C128.848 24.1458 127.109 23.2864 125.334 22.5212C118.271 19.3661 111.001 16.6584 103.593 14.398C99.9056 13.1737 96.138 12.2907 92.3819 11.2783L86.7016 10.0421C85.7453 9.85376 84.8005 9.60653 83.8557 9.45349L80.9753 8.97081C73.3363 7.53454 65.5706 7.00477 57.8049 6.65158C65.5821 6.56918 73.4055 6.67513 81.1596 7.69935L84.0746 8.01722C85.0425 8.12317 86.0103 8.31153 86.9781 8.45281L92.7736 9.37108C96.5988 10.1834 100.47 10.8662 104.261 11.8904C111.877 13.7741 119.4 16.1051 126.751 18.9187C128.595 19.6133 130.415 20.3785 132.247 21.0967C134.068 21.8501 135.877 22.6507 137.686 23.4512C141.303 25.1112 144.818 26.8064 148.389 28.8078Z" fill="black"/>
</svg>
